HIERARCHY
ROOT Bip001_Pelvis
{
  OFFSET 33.2923 95.8902 -28.781
  CHANNELS 6 Xposition Yposition Zposition Zrotation Xrotation Yrotation
  JOINT Bip001_Spine
  {
    OFFSET 1.4188e-005 10.2191 -0.0116013
    CHANNELS 3 Zrotation Xrotation Yrotation
    JOINT Bip001_L_Thigh
    {
      OFFSET 11.0458 -10.2192 0.0116197
      CHANNELS 3 Zrotation Xrotation Yrotation
      JOINT Bip001_L_Calf
      {
        OFFSET -0.707118 -44.0221 0.360014
        CHANNELS 3 Zrotation Xrotation Yrotation
        JOINT Bip001_L_Foot
        {
          OFFSET -0.651902 -40.5938 -3.56146
          CHANNELS 3 Zrotation Xrotation Yrotation
          JOINT Bip001_L_Toe0
          {
            OFFSET 0.0530839 -10.2181 13.1504
            CHANNELS 3 Zrotation Xrotation Yrotation
            End Site
            {
              OFFSET -1.02532e-005 0 7.55606
            }
          }
        }
      }
    }
    JOINT Bip001_R_Thigh
    {
      OFFSET -11.0458 -10.2191 0.0115893
      CHANNELS 3 Zrotation Xrotation Yrotation
      JOINT Bip001_R_Calf
      {
        OFFSET 0.706994 -44.0221 0.35984
        CHANNELS 3 Zrotation Xrotation Yrotation
        JOINT Bip001_R_Foot
        {
          OFFSET 0.651786 -40.5938 -3.5613
          CHANNELS 3 Zrotation Xrotation Yrotation
          JOINT Bip001_R_Toe0
          {
            OFFSET -0.0531479 -10.2181 13.1504
            CHANNELS 3 Zrotation Xrotation Yrotation
            End Site
            {
              OFFSET -1.02894e-005 0 7.55606
            }
          }
        }
      }
    }
    JOINT Bip001_Spine1
    {
      OFFSET 1.87041e-005 14.5736 1.08638
      CHANNELS 3 Zrotation Xrotation Yrotation
      JOINT Bip001_Spine2
      {
        OFFSET 2.24614e-005 14.5058 -1.69078
        CHANNELS 3 Zrotation Xrotation Yrotation
        JOINT Bip001_Neck
        {
          OFFSET 2.20278e-005 15.3945 -0.489414
          CHANNELS 3 Zrotation Xrotation Yrotation
          JOINT Bip001_L_Clavicle
          {
            OFFSET 6.06036 -0.000579998 0.00836775
            CHANNELS 3 Zrotation Xrotation Yrotation
            JOINT Bip001_L_UpperArm
            {
              OFFSET 11.5509 -0.0600302 0.00193952
              CHANNELS 3 Zrotation Xrotation Yrotation
              JOINT Bip001_L_Forearm
              {
                OFFSET 25.9523 0.0806089 -2.15551
                CHANNELS 3 Zrotation Xrotation Yrotation
                JOINT Bip001_L_Hand
                {
                  OFFSET 32.2476 0.153767 1.63968
                  CHANNELS 3 Zrotation Xrotation Yrotation
                  JOINT Bip001_L_Finger0
                  {
                    OFFSET 6.04639 -2.20976 5.90322
                    CHANNELS 3 Zrotation Xrotation Yrotation
                    End Site
                    {
                      OFFSET 4.22376 -1.43895 0.606486
                    }
                  }
                  JOINT Bip001_L_Finger1
                  {
                    OFFSET 11.0826 -0.704819 -0.198153
                    CHANNELS 3 Zrotation Xrotation Yrotation
                    End Site
                    {
                      OFFSET 6.20028 -0.397518 -0.0787166
                    }
                  }
                }
              }
            }
          }
          JOINT Bip001_R_Clavicle
          {
            OFFSET -6.06036 -0.000563197 0.00835105
            CHANNELS 3 Zrotation Xrotation Yrotation
            JOINT Bip001_R_UpperArm
            {
              OFFSET -11.5509 -0.0599978 0.00190698
              CHANNELS 3 Zrotation Xrotation Yrotation
              JOINT Bip001_R_Forearm
              {
                OFFSET -25.9523 0.080682 -2.1559
                CHANNELS 3 Zrotation Xrotation Yrotation
                JOINT Bip001_R_Hand
                {
                  OFFSET -32.2476 0.153858 1.63991
                  CHANNELS 3 Zrotation Xrotation Yrotation
                  JOINT Bip001_R_Finger0
                  {
                    OFFSET -6.04641 -2.20974 5.90321
                    CHANNELS 3 Zrotation Xrotation Yrotation
                    End Site
                    {
                      OFFSET -4.22376 -1.43894 0.606474
                    }
                  }
                  JOINT Bip001_R_Finger1
                  {
                    OFFSET -11.0826 -0.704789 -0.198184
                    CHANNELS 3 Zrotation Xrotation Yrotation
                    End Site
                    {
                      OFFSET -6.20028 -0.397501 -0.0787338
                    }
                  }
                }
              }
            }
          }
          JOINT Bip001_Head
          {
            OFFSET 1.09673e-005 11.2744 2.05948
            CHANNELS 3 Zrotation Xrotation Yrotation
            End Site
            {
              OFFSET 2.89576e-005 20.8808 -2.77728e-005
            }
          }
        }
      }
    }
  }
}
MOTION
Frames:	5
Frame Time:	0.04
32.2216 95.9021 -29.3162 0.306226 -1.57937 0.821981 0.11318 3.28273 0.195994 5.1302 -3.60186 7.10216 -0.428166 7.68822 -11.678 3.96377 -2.08856 -0.116531 -3.28546 -4.14904 5.1838 -3.18056 -3.61393 -2.76207 0.0636807 10.5123 0.708516 -5.17463 -9.83567 3.39219 1.86198 -6.74584 2.39144 0.209328 6.55385 0.366773 0.209466 6.55387 0.366679 3.87806 2.27425 -5.00481 -26.8224 -0.351231 -6.46764 -49.3283 40.8453 -1.01916 11.6029 -1.2296 -25.1947 7.3549 1.12135 -1.86307 -6.36111e-015 -3.18055e-015 4.77083e-015 -6.36111e-015 -6.36111e-015 3.18055e-015 26.0531 2.46435 8.36527 50.1553 33.0539 -1.1496 -7.52945 15.575 5.30013 -4.07949 2.72739 3.90305 1.98785e-016 3.18055e-015 -3.97569e-016 7.95139e-016 3.18056e-015 1.98785e-015 -5.00049 14.3254 -1.93051 
32.2339 95.9173 -29.3253 0.229979 -1.57946 0.514471 0.112877 3.29231 0.200706 5.13325 -3.52296 6.19397 -0.459157 7.5675 -10.5281 3.89475 -2.07922 -0.116531 -3.32807 -4.11979 5.23839 -3.1629 -3.61535 -2.24652 0.182072 10.3315 0.53096 -5.15289 -9.70653 3.34033 1.85525 -6.69252 2.37317 0.205821 6.58498 0.39612 0.20635 6.58499 0.396123 4.05032 2.32641 -5.0901 -26.9983 -0.422348 -6.50366 -49.3637 41.1664 -0.89611 11.5479 -1.38649 -24.7326 7.33172 1.16954 -1.72788 2.64834e-031 -9.54166e-015 1.59028e-015 -0 -3.18056e-015 -0 25.7331 2.30863 8.17338 49.7302 33.4285 0.0338226 -7.88501 12.1945 6.06325 -4.46292 3.14515 3.67838 -1.05604e-016 -3.18055e-015 -1.56232e-015 -1.80149e-016 0 -2.64943e-015 -5.1652 14.2821 -1.90491 
32.2387 95.9147 -29.3388 0.127188 -1.54783 0.158582 0.111722 3.30561 0.219922 5.12705 -3.57785 6.5402 -0.328033 7.67478 -10.7407 4.44907 -1.6912 -0.150277 -3.19796 -4.56445 5.08594 -3.12894 -3.67851 -1.64002 0.354621 10.2137 0.263388 -5.1102 -9.63781 3.3173 1.84118 -6.63096 2.33271 0.210796 6.6112 0.434524 0.210846 6.61122 0.434526 4.24795 2.21575 -5.18798 -27.2111 -0.348462 -6.49122 -49.3251 41.3971 -0.878788 11.549 -1.43577 -24.3506 7.17978 1.15641 -1.63562 6.36111e-015 6.36111e-015 -3.18055e-015 3.18055e-015 0 -1.59028e-015 25.5145 2.44487 8.25885 49.3072 36.1688 1.2732 -8.71332 7.48279 6.4961 -5.61248 2.15988 3.79382 7.95139e-016 1.27222e-014 1.59028e-015 -1.10348e-031 1.59028e-014 3.97569e-016 -5.37517 14.463 -1.85957 
32.2122 95.9111 -29.3708 -0.0426392 -1.49618 -0.0893723 0.141283 3.3216 0.245844 5.28735 -3.71009 6.35631 -0.390908 7.86252 -10.3768 4.66907 -1.65368 -0.149495 -3.10414 -4.704 5.03216 -2.98917 -3.72279 -1.16761 0.441851 10.0236 0.171199 -5.1165 -9.48541 3.16988 1.83346 -6.60109 2.32776 0.269006 6.64377 0.484708 0.268972 6.64379 0.484698 4.36 1.95602 -5.33388 -27.3715 -0.146373 -6.40438 -49.1339 41.4202 -1.03065 11.6321 -1.17218 -24.3043 7.13308 0.866778 -1.72058 -6.36111e-015 9.54166e-015 -0 -6.36111e-015 9.54167e-015 -0 25.7007 2.9325 8.68647 48.3259 38.6404 2.33499 -9.82232 3.77466 7.36127 -6.66548 1.69212 3.43423 -7.95139e-016 0 -7.95139e-016 -1.59028e-015 3.18056e-015 -0 -5.59559 14.7164 -1.88378 
32.1814 95.918 -29.4144 -0.151692 -1.49996 -0.262122 0.159024 3.35085 0.283769 5.41106 -3.78192 6.03374 -0.446707 7.97853 -9.87804 4.47292 -1.85143 -0.149012 -3.17689 -4.57195 5.0794 -2.88231 -3.7406 -0.958062 0.462264 9.87744 0.164237 -5.12893 -9.36881 3.09233 1.82904 -6.59816 2.3309 0.307943 6.70245 0.5592 0.3085 6.70247 0.55937 4.45041 1.77936 -5.46331 -27.4466 -0.0168684 -6.35633 -48.8518 41.6596 -1.41717 11.478 -1.56074 -24.3881 7.29746 0.977541 -1.60979 -3.18055e-015 -3.18055e-015 -0 -3.18055e-015 -3.18056e-015 3.18055e-015 25.7773 3.3718 9.27358 47.022 39.3534 4.06369 -10.4722 2.12247 7.89513 -7.8069 1.98849 2.94008 6.36111e-015 3.18055e-015 -1.59028e-015 4.77083e-015 0 -2.38542e-015 -5.71816 14.7668 -1.94041 
